<svg
  role="presentation"
  height="16"
  width="16"
  class="Svg-ulyrgf-0 hJgLcF efbd9b0f2646c39c4b8e65e2e66f70cc-scss"
  viewBox="0 0 16 16"
>
  <path
    d="M4 9.984v-4h1.802L9 4.143v7.69L5.802 9.984H4zm4 5.048q1.341 0 2.603-.508l.683.801q-1.58.707-3.286.707-1.627 0-3.107-.635-1.48-.635-2.552-1.707Q1.27 12.62.635 11.14 0 9.659 0 8.032q0-1.627.635-3.107.635-1.48 1.706-2.552Q3.413 1.302 4.893.667T8 .032q1.706 0 3.286.706l-.683.802Q9.341 1.032 8 1.032q-1.42 0-2.718.555-1.298.556-2.234 1.492-.937.937-1.492 2.234Q1 6.611 1 8.032q0 1.42.556 2.718.555 1.298 1.492 2.234.936.937 2.234 1.492 1.297.556 2.718.556zm4.357-12.469l.65-.761q1.398 1.119 2.195 2.746Q16 6.175 16 8.032t-.798 3.484q-.797 1.627-2.194 2.746l-.65-.762q1.23-.984 1.936-2.413Q15 9.66 15 8.032q0-1.627-.706-3.056-.707-1.428-1.937-2.413zM10.405 4.85l.643-.746q.904.699 1.428 1.722Q13 6.85 13 8.032q0 1.182-.524 2.206t-1.428 1.722l-.643-.746q.738-.563 1.166-1.393.429-.829.429-1.79 0-.96-.429-1.789-.428-.83-1.166-1.393z"
  ></path>
</svg>
