<svg
  role="img"
  height="16"
  width="16"
  viewBox="0 0 16 16"
  class="Svg-ulyrgf-0 hJgLcF"
>
  <path fill="none" d="M0 0h16v16H0z"></path>
  <path
    d="M5 5v-.5V4c-2.2.3-4 2.2-4 4.5 0 .6.1 1.2.4 1.8l.9-.5C2.1 9.4 2 9 2 8.5 2 6.7 3.3 5.3 5 5zM10.5 12H6v-1.5l-3.5 2 3.5 2V13h4.5c1.9 0 3.5-1.2 4.2-2.8-.5.3-1 .5-1.5.6-.7.7-1.6 1.2-2.7 1.2zM11.5 0C9 0 7 2 7 4.5S9 9 11.5 9 16 7 16 4.5 14 0 11.5 0zm.9 7h-1.3V3.6H10v-1h.1c.2 0 .3 0 .4-.1.1 0 .3-.1.4-.2.1-.1.2-.2.2-.3.1-.1.1-.2.1-.3v-.1h1.1V7z"
  ></path>
</svg>
